<svg width="1024" height="1024" viewBox="0 0 1024 1024" fill="none" xmlns="http://www.w3.org/2000/svg" role="img" aria-label="artefacts">
  <g stroke="#FFFFFF" stroke-width="24" stroke-linejoin="round">
    <path d="M 476.9 210.2 Q 512.0 191.0 547.1 210.2 L 743.9 317.8 Q 779.0 337.0 743.9 356.1 L 547.1 462.9 Q 512.0 482.0 476.9 462.9 L 280.1 356.1 Q 245.0 337.0 280.1 317.8 Z" fill="#FFFFFF"/>
    <path d="M 529.1 553.6 Q 530.1 513.6 564.2 492.8 L 755.4 376.1 Q 789.5 355.2 788.5 395.2 L 782.8 619.6 Q 781.8 659.6 747.9 680.8 L 556.3 800.5 Q 522.4 821.8 523.4 781.8 Z" fill="#FFFFFF"/>
    <path d="M 235.5 395.2 Q 234.5 355.2 268.6 376.1 L 459.8 492.8 Q 493.9 513.6 494.9 553.6 L 500.6 781.8 Q 501.6 821.8 467.7 800.5 L 276.1 680.8 Q 242.2 659.6 241.2 619.6 Z" fill="#FFD166"/>
  </g>
</svg>
